<?xml version="1.0" encoding="utf-8" standalone="no"?>
<!DOCTYPE svg PUBLIC "-//W3C//DTD SVG 1.1//EN"
  "http://www.w3.org/Graphics/SVG/1.1/DTD/svg11.dtd">
<!-- Created with matplotlib (https://matplotlib.org/) -->
<svg height="432pt" version="1.1" viewBox="0 0 4320 432" width="4320pt" xmlns="http://www.w3.org/2000/svg" xmlns:xlink="http://www.w3.org/1999/xlink">
 <defs>
  <style type="text/css">
*{stroke-linecap:butt;stroke-linejoin:round;}
  </style>
 </defs>
 <g id="figure_1">
  <g id="patch_1">
   <path d="M 0 432 
L 4320 432 
L 4320 0 
L 0 0 
z
" style="fill:#ffffff;"/>
  </g>
  <g id="axes_1">
   <g id="patch_2">
    <path d="M 2160 380.16 
C 2203.521241 380.16 2245.304484 362.852814 2276.078649 332.078649 
C 2306.852814 301.304484 2324.16 259.521241 2324.16 216 
C 2324.16 172.478759 2306.852814 130.695516 2276.078649 99.921351 
C 2245.304484 69.147186 2203.521241 51.84 2160 51.84 
L 2160 216 
L 2160 380.16 
z
" style="fill:#ff0000;"/>
   </g>
   <g id="patch_3">
    <path d="M 2001.55017 173.079642 
C 1994.957115 197.41934 1994.060143 222.954051 1998.929068 247.69638 
C 2003.797993 272.43871 2014.303132 295.729653 2029.626859 315.756453 
C 2044.950587 335.783252 2064.684759 352.012498 2087.293445 363.181053 
C 2109.902131 374.349608 2134.783155 380.16 2160 380.16 
L 2160 216 
L 2001.55017 173.079642 
z
" style="fill:#0000ff;"/>
   </g>
   <g id="patch_4">
    <path d="M 2151.26744 52.072431 
C 2116.755175 53.910928 2083.689416 66.602286 2056.81001 88.327249 
C 2029.930603 110.052211 2010.586349 139.720626 2001.55017 173.079642 
L 2160 216 
L 2151.26744 52.072431 
z
" style="fill:#008000;"/>
   </g>
   <g id="patch_5">
    <path d="M 2160.000017 51.84 
C 2158.543879 51.84 2157.087805 51.859374 2155.632182 51.898118 
C 2154.17656 51.936861 2152.721517 51.994971 2151.26744 52.072431 
L 2160 216 
L 2160.000017 51.84 
z
" style="fill:#808080;"/>
   </g>
   <g id="patch_6">
    <path clip-path="url(#p91ca35c597)" d="M 2160 281.664 
C 2177.414296 281.664 2194.117693 274.745227 2206.43146 262.43146 
C 2218.745227 250.117693 2225.664 233.414296 2225.664 216 
C 2225.664 198.585704 2218.745227 181.882307 2206.43146 169.56854 
C 2194.117693 157.254773 2177.414296 150.336 2160 150.336 
C 2142.585704 150.336 2125.882307 157.254773 2113.56854 169.56854 
C 2101.254773 181.882307 2094.336 198.585704 2094.336 216 
C 2094.336 233.414296 2101.254773 250.117693 2113.56854 262.43146 
C 2125.882307 274.745227 2142.585704 281.664 2160 281.664 
z
" style="fill:#ffffff;stroke:#ffffff;stroke-linejoin:miter;"/>
   </g>
   <g id="matplotlib.axis_1"/>
   <g id="matplotlib.axis_2"/>
   <g id="text_1">
    <!-- 확진환자 -->
    <defs>
     <path d="M 79.796875 35.59375 
L 46.203125 35.59375 
L 46.203125 40.09375 
Q 51.203125 41.90625 54.5 46.40625 
Q 57.796875 50.90625 57.796875 56.703125 
Q 57.796875 57.90625 57.546875 59.296875 
Q 57.296875 60.703125 57 62 
L 69.59375 62 
L 69.59375 72.59375 
L 46.203125 72.59375 
L 46.203125 78.59375 
L 34 78.59375 
L 34 72.59375 
L 10.5 72.59375 
L 10.5 62 
L 23.203125 62 
Q 22.796875 60.703125 22.59375 59.296875 
Q 22.40625 57.90625 22.40625 56.703125 
Q 22.40625 50.90625 25.65625 46.40625 
Q 28.90625 41.90625 34 40.09375 
L 34 35.59375 
L 9.5 35.59375 
L 9.5 25.59375 
L 91.90625 25.59375 
L 91.90625 43.5 
L 101.703125 43.5 
L 101.703125 54.40625 
L 91.90625 54.40625 
L 91.90625 74.296875 
L 79.796875 74.296875 
z
M 46.296875 56.703125 
Q 46.296875 54 44.5 52.25 
Q 42.703125 50.5 40.09375 50.5 
Q 37.40625 50.5 35.65625 52.25 
Q 33.90625 54 33.90625 56.703125 
Q 33.90625 58.296875 34.75 59.75 
Q 35.59375 61.203125 37.09375 62 
L 43.203125 62 
Q 44.59375 61.203125 45.4375 59.75 
Q 46.296875 58.296875 46.296875 56.703125 
z
M 79.796875 -10.296875 
L 91.90625 -10.296875 
L 91.90625 21.59375 
L 10.5 21.59375 
L 10.5 11.296875 
L 79.796875 11.296875 
z
" id="UNAVAILABLE-54869"/>
     <path d="M 10.5 61.203125 
L 33 61.203125 
Q 32.09375 53.796875 30.09375 49.34375 
Q 28.09375 44.90625 25 42.5 
Q 22 40.09375 18.046875 39.296875 
Q 14.09375 38.5 9.5 38.5 
L 9.5 27.5 
Q 14.09375 27.5 18.59375 28.140625 
Q 23.09375 28.796875 27 30.5 
Q 30.90625 32.203125 34.046875 35 
Q 37.203125 37.796875 39.203125 42 
Q 41.09375 37.796875 44.1875 35 
Q 47.296875 32.203125 51.296875 30.5 
Q 55.203125 28.796875 59.703125 28.140625 
Q 64.203125 27.5 68.90625 27.5 
L 68.90625 38.5 
Q 64.40625 38.5 60.453125 39.296875 
Q 56.5 40.09375 53.40625 42.5 
Q 50.296875 44.90625 48.1875 49.34375 
Q 46.09375 53.796875 45.296875 61.203125 
L 67.90625 61.203125 
L 67.90625 72 
L 10.5 72 
z
M 22.40625 0.40625 
L 22.40625 21.09375 
L 10.5 21.09375 
L 10.5 -10.5 
L 91.796875 -10.5 
L 91.796875 74.296875 
L 79.90625 74.296875 
L 79.90625 0.40625 
z
" id="UNAVAILABLE-51652"/>
     <path d="M 79.796875 74.296875 
L 79.796875 34.90625 
L 46.203125 34.90625 
L 46.203125 40.09375 
Q 51.203125 41.90625 54.5 46.40625 
Q 57.796875 50.90625 57.796875 56.703125 
Q 57.796875 57.90625 57.546875 59.296875 
Q 57.296875 60.703125 57 62 
L 69.59375 62 
L 69.59375 72.59375 
L 46.203125 72.59375 
L 46.203125 78.59375 
L 34 78.59375 
L 34 72.59375 
L 10.5 72.59375 
L 10.5 62 
L 23.203125 62 
Q 22.796875 60.703125 22.59375 59.296875 
Q 22.40625 57.90625 22.40625 56.703125 
Q 22.40625 50.90625 25.65625 46.40625 
Q 28.90625 41.90625 34 40.09375 
L 34 34.90625 
L 9.5 34.90625 
L 9.5 24.90625 
L 91.90625 24.90625 
L 91.90625 42.09375 
L 101.703125 42.09375 
L 101.703125 53 
L 91.90625 53 
L 91.90625 74.296875 
z
M 46.296875 56.703125 
Q 46.296875 54 44.5 52.25 
Q 42.703125 50.5 40.09375 50.5 
Q 37.40625 50.5 35.65625 52.25 
Q 33.90625 54 33.90625 56.703125 
Q 33.90625 58.296875 34.75 59.75 
Q 35.59375 61.203125 37.09375 62 
L 43.203125 62 
Q 44.59375 61.203125 45.4375 59.75 
Q 46.296875 58.296875 46.296875 56.703125 
z
M 22.40625 17.90625 
L 10.5 17.90625 
L 10.5 -10.296875 
L 93.40625 -10.296875 
L 93.40625 0.5 
L 22.40625 0.5 
z
" id="UNAVAILABLE-54872"/>
     <path d="M 68 58.203125 
L 68 68.90625 
L 10.40625 68.90625 
L 10.40625 58.203125 
L 33.296875 58.203125 
L 33.296875 46.5 
Q 32.796875 34.40625 31 26.09375 
Q 29.203125 17.796875 26.09375 12.703125 
Q 23.09375 7.5 18.890625 5.203125 
Q 14.703125 2.90625 9.59375 2.90625 
L 9.09375 2.90625 
L 9.09375 -7.703125 
Q 20.203125 -7.703125 28.34375 -2.203125 
Q 36.5 3.296875 39.203125 14.59375 
Q 41.90625 3.296875 50 -2.203125 
Q 58.09375 -7.703125 69.296875 -7.703125 
L 69.296875 2.90625 
Q 63.90625 2.90625 59.59375 5.203125 
Q 55.296875 7.5 52.203125 12.703125 
Q 49.09375 17.796875 47.296875 26.09375 
Q 45.5 34.40625 45.09375 46.5 
L 45.09375 58.203125 
z
M 91.796875 42 
L 91.796875 74.296875 
L 79.796875 74.296875 
L 79.796875 -11.90625 
L 91.796875 -11.90625 
L 91.796875 31.203125 
L 101.59375 31.203125 
L 101.59375 42 
z
" id="UNAVAILABLE-51088"/>
    </defs>
    <g transform="translate(2340.576 219.773438)scale(0.15 -0.15)">
     <use xlink:href="#UNAVAILABLE-54869"/>
     <use x="102.399994" xlink:href="#UNAVAILABLE-51652"/>
     <use x="204.799988" xlink:href="#UNAVAILABLE-54872"/>
     <use x="307.199982" xlink:href="#UNAVAILABLE-51088"/>
    </g>
   </g>
   <g id="text_2">
    <!-- 50.0% -->
    <defs>
     <path d="M 19.203125 25.203125 
Q 20.59375 29 23.75 31.140625 
Q 26.90625 33.296875 31.203125 33.296875 
Q 36.90625 33.296875 40.796875 28.75 
Q 44.703125 24.203125 44.703125 17 
Q 44.703125 9.5 40.890625 5 
Q 37.09375 0.5 31.09375 0.5 
Q 25.703125 0.5 22 3.046875 
Q 18.296875 5.59375 18.296875 12.5 
L 5.59375 11.5 
Q 7 1 13.640625 -4.890625 
Q 20.296875 -10.796875 30.796875 -10.796875 
Q 36.796875 -10.796875 41.6875 -8.796875 
Q 46.59375 -6.796875 50.09375 -3.09375 
Q 53.5 0.59375 55.390625 5.796875 
Q 57.296875 11 57.40625 17.5 
Q 57.40625 23.40625 55.546875 28.34375 
Q 53.703125 33.296875 50.5 36.796875 
Q 47.203125 40.40625 42.640625 42.40625 
Q 38.09375 44.40625 32.796875 44.40625 
Q 30 44.40625 27.25 43.703125 
Q 24.5 43 21.5 41 
L 23.90625 54.09375 
L 53.09375 54.09375 
L 54.90625 65.40625 
L 14.796875 65.40625 
L 7.703125 25.90625 
z
" id="UNAVAILABLE-53"/>
     <path d="M 17.296875 28.203125 
Q 17.296875 41.296875 21 48.296875 
Q 24.703125 55.296875 31.40625 55.296875 
Q 38 55.296875 41.640625 48.390625 
Q 45.296875 41.5 45.296875 28.59375 
Q 45.296875 14.796875 41.6875 7.75 
Q 38.09375 0.703125 31.203125 0.703125 
Q 24.59375 0.703125 20.9375 7.703125 
Q 17.296875 14.703125 17.296875 28.203125 
z
M 4.703125 28.59375 
Q 4.703125 9.90625 11.546875 -0.390625 
Q 18.40625 -10.703125 31.296875 -10.703125 
Q 44.203125 -10.703125 51.09375 -0.390625 
Q 58 9.90625 58 28.59375 
Q 58 37.40625 56.140625 44.453125 
Q 54.296875 51.5 50.90625 56.40625 
Q 47.40625 61.40625 42.40625 64.046875 
Q 37.40625 66.703125 31.203125 66.703125 
Q 24.90625 66.703125 20 64.046875 
Q 15.09375 61.40625 11.703125 56.40625 
Q 8.296875 51.5 6.5 44.453125 
Q 4.703125 37.40625 4.703125 28.59375 
z
" id="UNAVAILABLE-48"/>
     <path d="M 23 6.09375 
L 9.59375 6.09375 
L 9.59375 -7.59375 
L 23 -7.59375 
z
" id="UNAVAILABLE-46"/>
     <path d="M 49.09375 7 
Q 49.09375 11.203125 50.6875 13.59375 
Q 52.296875 16 55 16 
Q 57.703125 16 59.34375 13.59375 
Q 61 11.203125 61 7 
Q 61 2.5 59.296875 0 
Q 57.59375 -2.5 55 -2.5 
Q 52.296875 -2.5 50.6875 0 
Q 49.09375 2.5 49.09375 7 
z
M 55 -10.703125 
Q 61.59375 -10.703125 65.59375 -5.796875 
Q 69.59375 -0.90625 69.59375 7 
Q 69.59375 14.703125 65.59375 19.59375 
Q 61.59375 24.5 55 24.5 
Q 48.59375 24.5 44.59375 19.5 
Q 40.59375 14.5 40.59375 7 
Q 40.59375 -0.796875 44.59375 -5.75 
Q 48.59375 -10.703125 55 -10.703125 
z
M 49.5 66.5 
L 13.796875 -10.703125 
L 24.203125 -10.703125 
L 59.90625 66.5 
z
M 12.796875 49 
Q 12.796875 53.40625 14.390625 55.90625 
Q 16 58.40625 18.703125 58.40625 
Q 21.09375 58.40625 22.890625 55.90625 
Q 24.703125 53.40625 24.703125 49 
Q 24.703125 44.796875 22.890625 42.34375 
Q 21.09375 39.90625 18.703125 39.90625 
Q 16 39.90625 14.390625 42.296875 
Q 12.796875 44.703125 12.796875 49 
z
M 18.703125 31.5 
Q 25.203125 31.5 29.203125 36.296875 
Q 33.203125 41.09375 33.203125 48.90625 
Q 33.203125 56.703125 29.203125 61.59375 
Q 25.203125 66.5 18.703125 66.5 
Q 12.09375 66.5 8.046875 61.59375 
Q 4 56.703125 4 48.90625 
Q 4 41.09375 8.046875 36.296875 
Q 12.09375 31.5 18.703125 31.5 
z
" id="UNAVAILABLE-37"/>
    </defs>
    <g style="fill:#ffffff;" transform="translate(2260.176844 218.385156)scale(0.1 -0.1)">
     <use xlink:href="#UNAVAILABLE-53"/>
     <use x="62.699997" xlink:href="#UNAVAILABLE-48"/>
     <use x="125.399994" xlink:href="#UNAVAILABLE-46"/>
     <use x="157.899979" xlink:href="#UNAVAILABLE-48"/>
     <use x="220.599976" xlink:href="#UNAVAILABLE-37"/>
    </g>
   </g>
   <g id="text_3">
    <!-- 완치자 -->
    <defs>
     <path d="M 42.796875 69.5 
Q 47.09375 69.5 50.09375 66.75 
Q 53.09375 64 53.09375 59.5 
Q 53.09375 55 50.046875 52 
Q 47 49 42.796875 49 
Q 38.40625 49 35.40625 52 
Q 32.40625 55 32.40625 59.5 
Q 32.40625 64 35.34375 66.75 
Q 38.296875 69.5 42.796875 69.5 
z
M 80 74.296875 
L 80 33.796875 
L 48.796875 33.796875 
L 48.796875 38.296875 
Q 52.203125 39.296875 55.140625 41.34375 
Q 58.09375 43.40625 60.296875 46.203125 
Q 62.5 49 63.75 52.390625 
Q 65 55.796875 65 59.5 
Q 65 63.90625 63.203125 67.796875 
Q 61.40625 71.703125 58.40625 74.59375 
Q 55.296875 77.59375 51.296875 79.296875 
Q 47.296875 81 42.796875 81 
Q 38.296875 81 34.25 79.296875 
Q 30.203125 77.59375 27.09375 74.59375 
Q 24 71.703125 22.25 67.796875 
Q 20.5 63.90625 20.5 59.5 
Q 20.5 55.703125 21.75 52.296875 
Q 23 48.90625 25.203125 46 
Q 27.40625 43.203125 30.40625 41.140625 
Q 33.40625 39.09375 36.90625 38.203125 
L 36.90625 33.796875 
L 9.5 33.796875 
L 9.5 23 
L 91.90625 23 
L 91.90625 46.296875 
L 101.703125 46.296875 
L 101.703125 57.203125 
L 91.90625 57.203125 
L 91.90625 74.296875 
z
M 22.40625 0.5 
L 22.40625 18.296875 
L 10.5 18.296875 
L 10.5 -10.296875 
L 93.40625 -10.296875 
L 93.40625 0.5 
z
" id="UNAVAILABLE-50756"/>
     <path d="M 33.40625 48.203125 
Q 32.90625 36.09375 31.046875 27.796875 
Q 29.203125 19.5 26.09375 14.40625 
Q 22.90625 9.203125 18.65625 6.890625 
Q 14.40625 4.59375 9.203125 4.59375 
L 9.203125 -6.09375 
Q 20.296875 -6.09375 28.4375 -0.546875 
Q 36.59375 5 39.296875 16.296875 
Q 42 5 50.09375 -0.546875 
Q 58.203125 -6.09375 69.40625 -6.09375 
L 69.40625 4.59375 
Q 64 4.59375 59.640625 6.890625 
Q 55.296875 9.203125 52.296875 14.40625 
Q 49.203125 19.5 47.34375 27.796875 
Q 45.5 36.09375 45.09375 48.203125 
L 45.09375 53.203125 
L 68.09375 53.203125 
L 68.09375 63.796875 
L 45.09375 63.796875 
L 45.09375 72.09375 
L 33.40625 72.09375 
L 33.40625 63.796875 
L 10.5 63.796875 
L 10.5 53.203125 
L 33.40625 53.203125 
z
M 79.90625 -11.90625 
L 91.796875 -11.90625 
L 91.796875 74.296875 
L 79.90625 74.296875 
z
" id="UNAVAILABLE-52824"/>
    </defs>
    <g transform="translate(1970.523139 329.686004)scale(0.15 -0.15)">
     <use xlink:href="#UNAVAILABLE-50756"/>
     <use x="102.399994" xlink:href="#UNAVAILABLE-52824"/>
     <use x="204.799988" xlink:href="#UNAVAILABLE-51088"/>
    </g>
   </g>
   <g id="text_4">
    <!-- 29.2% -->
    <defs>
     <path d="M 19.90625 37.40625 
Q 19.59375 42 20.5 45.25 
Q 21.40625 48.5 23.09375 50.5 
Q 24.703125 52.59375 27 53.546875 
Q 29.296875 54.5 31.703125 54.5 
Q 36.09375 54.5 39.140625 51.046875 
Q 42.203125 47.59375 42.203125 42.59375 
Q 42.09375 36 39.140625 30.640625 
Q 36.203125 25.296875 31.296875 20.40625 
Q 26.40625 15.5 20.203125 10.84375 
Q 14 6.203125 7.40625 1 
L 7.40625 -9.40625 
L 56.5 -9.40625 
L 56.5 2 
L 24.796875 2 
Q 31.703125 7.09375 37.34375 11.546875 
Q 43 16 47 20.59375 
Q 51 25.203125 53.25 30.390625 
Q 55.5 35.59375 55.5 42.296875 
Q 55.5 47.703125 53.640625 52.09375 
Q 51.796875 56.5 48.59375 59.703125 
Q 45.40625 62.90625 41 64.65625 
Q 36.59375 66.40625 31.59375 66.40625 
Q 26.203125 66.40625 21.796875 64.40625 
Q 17.40625 62.40625 14.296875 58.703125 
Q 11.203125 55 9.5 49.84375 
Q 7.796875 44.703125 7.90625 38.59375 
z
" id="UNAVAILABLE-50"/>
     <path d="M 7.40625 8.203125 
Q 8.90625 -0.5 14.84375 -5.59375 
Q 20.796875 -10.703125 29.5 -10.703125 
Q 35.796875 -10.703125 40.84375 -7.953125 
Q 45.90625 -5.203125 49.40625 0 
Q 52.90625 5.09375 54.75 12.4375 
Q 56.59375 19.796875 56.59375 29 
Q 56.59375 47 49.890625 56.84375 
Q 43.203125 66.703125 30.59375 66.703125 
Q 25.5 66.703125 21.09375 64.703125 
Q 16.703125 62.703125 13.5 59.203125 
Q 10.203125 55.703125 8.390625 50.953125 
Q 6.59375 46.203125 6.59375 40.703125 
Q 6.59375 35.40625 8.34375 30.75 
Q 10.09375 26.09375 13.296875 22.59375 
Q 16.40625 19.09375 20.703125 17.09375 
Q 25 15.09375 30 15.09375 
Q 33.90625 15.09375 37.40625 16.640625 
Q 40.90625 18.203125 44.203125 21.59375 
Q 43.296875 10.5 39.390625 5.546875 
Q 35.5 0.59375 29.5 0.59375 
Q 25.5 0.59375 22.75 2.390625 
Q 20 4.203125 18.796875 9.90625 
z
M 42.796875 41.40625 
Q 42.796875 34.5 39.34375 30.390625 
Q 35.90625 26.296875 30.796875 26.296875 
Q 25.40625 26.296875 22.203125 30.140625 
Q 19 34 19 40.59375 
Q 19 47.203125 22.25 51.390625 
Q 25.5 55.59375 30.90625 55.59375 
Q 36 55.59375 39.390625 51.59375 
Q 42.796875 47.59375 42.796875 41.40625 
z
" id="UNAVAILABLE-57"/>
    </defs>
    <g style="fill:#ffffff;" transform="translate(2054.003645 288.214673)scale(0.1 -0.1)">
     <use xlink:href="#UNAVAILABLE-50"/>
     <use x="62.699997" xlink:href="#UNAVAILABLE-57"/>
     <use x="125.399994" xlink:href="#UNAVAILABLE-46"/>
     <use x="157.899979" xlink:href="#UNAVAILABLE-50"/>
     <use x="220.599976" xlink:href="#UNAVAILABLE-37"/>
    </g>
   </g>
   <g id="text_5">
    <!-- 치료중 -->
    <defs>
     <path d="M 79.90625 51.796875 
L 10.5 51.796875 
L 10.5 21.703125 
L 91.796875 21.703125 
L 91.796875 32.5 
L 22.40625 32.5 
L 22.40625 40.90625 
L 91.796875 40.90625 
L 91.796875 70.203125 
L 10.5 70.203125 
L 10.5 59.5 
L 79.90625 59.5 
z
M 94.203125 2.796875 
L 79.09375 2.796875 
L 79.09375 15.59375 
L 67.203125 15.59375 
L 67.203125 2.796875 
L 35.90625 2.796875 
L 35.90625 15.59375 
L 23.90625 15.59375 
L 23.90625 2.796875 
L 8.09375 2.796875 
L 8.09375 -8.09375 
L 94.203125 -8.09375 
z
" id="UNAVAILABLE-47308"/>
     <path d="M 11.5 64.09375 
L 43.40625 64.09375 
Q 41 60.59375 37.453125 58.546875 
Q 33.90625 56.5 29.59375 55.5 
Q 25.203125 54.40625 20.34375 54.15625 
Q 15.5 53.90625 10.5 53.90625 
L 10.5 43.703125 
Q 16.40625 43.703125 22.046875 44.046875 
Q 27.703125 44.40625 32.90625 45.5 
Q 38.09375 46.59375 42.640625 48.6875 
Q 47.203125 50.796875 51 54.40625 
Q 54.796875 50.796875 59.59375 48.6875 
Q 64.40625 46.59375 69.703125 45.5 
Q 75 44.40625 80.59375 44.046875 
Q 86.203125 43.703125 91.796875 43.703125 
L 91.796875 53.90625 
Q 86.40625 53.90625 81.453125 54.203125 
Q 76.5 54.5 72.296875 55.5 
Q 68 56.59375 64.59375 58.59375 
Q 61.203125 60.59375 58.796875 64.09375 
L 90.796875 64.09375 
L 90.796875 74.296875 
L 11.5 74.296875 
z
M 52.09375 -17.90625 
Q 56.5 -17.90625 60.5 -16.203125 
Q 64.5 -14.5 67.5 -11.5 
Q 70.5 -8.59375 72.25 -4.640625 
Q 74 -0.703125 74 3.796875 
Q 74 7.296875 72.75 10.59375 
Q 71.5 13.90625 69.40625 16.59375 
Q 67.296875 19.296875 64.4375 21.296875 
Q 61.59375 23.296875 58.296875 24.296875 
L 58.296875 29 
L 94.296875 29 
L 94.296875 39.203125 
L 8.203125 39.203125 
L 8.203125 29 
L 46.203125 29 
L 46.203125 24.5 
Q 42.703125 23.5 39.796875 21.5 
Q 36.90625 19.5 34.703125 16.796875 
Q 32.5 14.09375 31.296875 10.75 
Q 30.09375 7.40625 30.09375 3.796875 
Q 30.09375 -0.703125 31.84375 -4.640625 
Q 33.59375 -8.59375 36.59375 -11.5 
Q 39.59375 -14.5 43.59375 -16.203125 
Q 47.59375 -17.90625 52.09375 -17.90625 
z
M 52.09375 -6.296875 
Q 47.796875 -6.296875 45 -3.5 
Q 42.203125 -0.703125 42.203125 3.796875 
Q 42.203125 8 45 10.84375 
Q 47.796875 13.703125 52.09375 13.703125 
Q 56.296875 13.703125 59.140625 10.84375 
Q 62 8 62 3.796875 
Q 62 -0.703125 59.140625 -3.5 
Q 56.296875 -6.296875 52.09375 -6.296875 
z
" id="UNAVAILABLE-51473"/>
    </defs>
    <g transform="translate(2000.424604 79.461145)scale(0.15 -0.15)">
     <use xlink:href="#UNAVAILABLE-52824"/>
     <use x="102.399994" xlink:href="#UNAVAILABLE-47308"/>
     <use x="204.699982" xlink:href="#UNAVAILABLE-51473"/>
    </g>
   </g>
   <g id="text_6">
    <!-- 19.9% -->
    <defs>
     <path d="M 28.09375 42.296875 
Q 29.203125 42.296875 29.640625 41.75 
Q 30.09375 41.203125 30.09375 39.703125 
L 30.09375 -9.40625 
L 42.59375 -9.40625 
L 42.59375 65.40625 
L 31.90625 65.40625 
Q 30.40625 58.59375 27.5 55.1875 
Q 24.59375 51.796875 20.09375 51.796875 
L 20.09375 42.296875 
z
" id="UNAVAILABLE-49"/>
    </defs>
    <g style="fill:#ffffff;" transform="translate(2073.03185 129.01423)scale(0.1 -0.1)">
     <use xlink:href="#UNAVAILABLE-49"/>
     <use x="62.699997" xlink:href="#UNAVAILABLE-57"/>
     <use x="125.399994" xlink:href="#UNAVAILABLE-46"/>
     <use x="157.899979" xlink:href="#UNAVAILABLE-57"/>
     <use x="220.599976" xlink:href="#UNAVAILABLE-37"/>
    </g>
   </g>
   <g id="text_7">
    <!-- 사망자 -->
    <defs>
     <path d="M 10.40625 7.203125 
L 10.40625 -3.5 
Q 21.5 -3.5 29.640625 2.046875 
Q 37.796875 7.59375 40.5 18.90625 
Q 43.203125 7.59375 51.296875 2.046875 
Q 59.40625 -3.5 70.59375 -3.5 
L 70.59375 7.203125 
Q 65.203125 7.203125 60.890625 9.5 
Q 56.59375 11.796875 53.5 17 
Q 50.40625 22.09375 48.59375 30.390625 
Q 46.796875 38.703125 46.40625 50.796875 
L 46.40625 70.09375 
L 34.59375 70.09375 
L 34.59375 50.796875 
Q 34.09375 38.703125 32.25 30.390625 
Q 30.40625 22.09375 27.40625 17 
Q 24.296875 11.796875 20.140625 9.5 
Q 16 7.203125 10.90625 7.203125 
z
M 79.796875 -11.90625 
L 91.796875 -11.90625 
L 91.796875 30.09375 
L 101.59375 30.09375 
L 101.59375 40.90625 
L 91.796875 40.90625 
L 91.796875 74.203125 
L 79.796875 74.203125 
z
" id="UNAVAILABLE-49324"/>
     <path d="M 91.796875 74.296875 
L 79.796875 74.296875 
L 79.796875 25.09375 
Q 77.40625 26.40625 74.546875 27.203125 
Q 71.703125 28 68.703125 28 
Q 63.90625 28 59.703125 26.140625 
Q 55.5 24.296875 52.40625 21.09375 
Q 49.203125 18 47.390625 13.796875 
Q 45.59375 9.59375 45.59375 5 
Q 45.59375 0.296875 47.390625 -3.84375 
Q 49.203125 -8 52.40625 -11.09375 
Q 55.5 -14.203125 59.703125 -16 
Q 63.90625 -17.796875 68.703125 -17.796875 
Q 73.40625 -17.796875 77.59375 -16 
Q 81.796875 -14.203125 84.90625 -11.09375 
Q 88.09375 -8 89.9375 -3.84375 
Q 91.796875 0.296875 91.796875 5 
L 91.796875 41.5 
L 101.59375 41.5 
L 101.59375 52.296875 
L 91.796875 52.296875 
z
M 68.703125 -6.40625 
Q 64 -6.40625 60.796875 -3.09375 
Q 57.59375 0.203125 57.59375 5.203125 
Q 57.59375 10 60.796875 13.34375 
Q 64 16.703125 68.703125 16.703125 
Q 73.40625 16.703125 76.59375 13.34375 
Q 79.796875 10 79.796875 5.203125 
Q 79.796875 0.203125 76.59375 -3.09375 
Q 73.40625 -6.40625 68.703125 -6.40625 
z
M 10.40625 28.296875 
L 65 28.296875 
L 65 71.796875 
L 10.40625 71.796875 
z
M 53.09375 39.203125 
L 22.296875 39.203125 
L 22.296875 61.09375 
L 53.09375 61.09375 
z
" id="UNAVAILABLE-47581"/>
    </defs>
    <g transform="translate(2109.161807 39.380898)scale(0.15 -0.15)">
     <use xlink:href="#UNAVAILABLE-49324"/>
     <use x="102.299988" xlink:href="#UNAVAILABLE-47581"/>
     <use x="204.599976" xlink:href="#UNAVAILABLE-51088"/>
    </g>
   </g>
   <g id="text_8">
    <!-- 0.8% -->
    <defs>
     <path d="M 18.296875 12.296875 
Q 18.296875 18 21.890625 21.34375 
Q 25.5 24.703125 31.796875 24.703125 
Q 37.203125 24.703125 40.640625 21.25 
Q 44.09375 17.796875 44.09375 12.5 
Q 44.09375 7.09375 40.5 3.796875 
Q 36.90625 0.5 31.203125 0.5 
Q 25.5 0.5 21.890625 3.796875 
Q 18.296875 7.09375 18.296875 12.296875 
z
M 31.59375 56.09375 
Q 36.40625 56.09375 39.5 53.1875 
Q 42.59375 50.296875 42.59375 46.09375 
Q 42.59375 41.296875 39.296875 38.25 
Q 36 35.203125 31.203125 35.203125 
Q 26.09375 35.203125 22.84375 38.046875 
Q 19.59375 40.90625 19.59375 45.5 
Q 19.59375 50.203125 23 53.140625 
Q 26.40625 56.09375 31.59375 56.09375 
z
M 5.703125 12.5 
Q 5.703125 2 12.703125 -4.453125 
Q 19.703125 -10.90625 31.703125 -10.90625 
Q 36.796875 -10.90625 41.296875 -9.40625 
Q 45.796875 -7.90625 49.296875 -4.90625 
Q 52.703125 -1.90625 54.703125 2.546875 
Q 56.703125 7 56.703125 12.90625 
Q 56.703125 18 54 22.5 
Q 51.296875 27 45.90625 30.09375 
Q 50.59375 33.40625 52.546875 37.046875 
Q 54.5 40.703125 54.5 45.59375 
Q 54.5 54.90625 48.296875 60.703125 
Q 42.09375 66.5 31.59375 66.5 
Q 20.703125 66.5 14.296875 60.75 
Q 7.90625 55 7.90625 45.796875 
Q 7.90625 41.203125 9.953125 37.140625 
Q 12 33.09375 16.796875 30.09375 
Q 11.09375 27.09375 8.390625 22.5 
Q 5.703125 17.90625 5.703125 12.5 
z
" id="UNAVAILABLE-56"/>
    </defs>
    <g style="fill:#ffffff;" transform="translate(2145.342528 103.513839)scale(0.1 -0.1)">
     <use xlink:href="#UNAVAILABLE-48"/>
     <use x="62.699997" xlink:href="#UNAVAILABLE-46"/>
     <use x="95.199982" xlink:href="#UNAVAILABLE-56"/>
     <use x="157.899979" xlink:href="#UNAVAILABLE-37"/>
    </g>
   </g>
  </g>
 </g>
 <defs>
  <clipPath id="p91ca35c597">
   <rect height="410.4" width="410.4" x="1954.8" y="10.8"/>
  </clipPath>
 </defs>
</svg>
